# xmcd
#
# Track frame offsets: 
#        150
#        11536
#        24969
#        36534
#        50028
#        62384
#        75894
#        89458
#        103237
#        116538
#        130702
#        142296
#        156237
#        171850
#        186091
#        198201
#        211783
#        221827
#        232997
#        244813
#        258414
#        268663
#        278918
#        290873
#        304062
#
# Disc length: 4194 seconds
#
# Revision: 0
# Processed by: cddbd v1.5.1PL2 Copyright (c) Steve Scherf et al.
# Submitted via: ExactAudioCopy v0.95b4
#
DISCID=6f106019
DTITLE=Varios Artistas - Sound Music Mundo Hits CD 3
DYEAR=2002
DGENRE=Soul
TTITLE0=Aaron Neville - Tell I like it is
TTITLE1=Al Wilson - Show and tell
TTITLE2=Curtis Mayfield - Only you baby
TTITLE3=Joe Tex - Takin a chance
TTITLE4=Bob and Earl - Harlem shuffle
TTITLE5=Brenda Lee - Johnny one time
TTITLE6=Ike and Tina Turner - Give me a chance
TTITLE7=Jackie Wilson - No pity
TTITLE8=James Brown - It´s a mens mens world
TTITLE9=Joe Simon - Misty Blue
TTITLE10=Barbara Lewis - Hello stranger
TTITLE11=Joe Tex - Hold what you´ve got
TTITLE12=Luther Ingram - If loving you is wrong
TTITLE13=The Impressions - Choice of colours
TTITLE14=The Spaniels - Goodnight sweetheart
TTITLE15=Curtis Mayfield - Baby it´s you
TTITLE16=The Shirelles - Foolish little girl
TTITLE17=The Butterflyes - Goodnight baby
TTITLE18=The Jeally Beans - I want to love him so bad
TTITLE19=Joe Tex - All a man needs
TTITLE20=The Pony Tails - Born too late
TTITLE21=The Shangrillas - Remember
TTITLE22=The Shirelles - Soldier Boy
TTITLE23=Joe Tex - The love you save
TTITLE24=The Teddy Bears - To know him is to love him
EXTD=
EXTT0=
EXTT1=
EXTT2=
EXTT3=
EXTT4=
EXTT5=
EXTT6=
EXTT7=
EXTT8=
EXTT9=
EXTT10=
EXTT11=
EXTT12=
EXTT13=
EXTT14=
EXTT15=
EXTT16=
EXTT17=
EXTT18=
EXTT19=
EXTT20=
EXTT21=
EXTT22=
EXTT23=
EXTT24=
PLAYORDER=
